<svg xmlns="http://www.w3.org/2000/svg" aria-hidden="true" style="position:absolute;width:0;height:0;overflow:hidden"><defs><symbol id="icon-right-arrow" viewBox="0 0 32 32"><path fill="#00b5e2" d="m19.2 3.201-2.24 2.24 8.96 8.96H0v3.2h25.92l-8.96 8.96 2.24 2.24 12.8-12.8-12.8-12.8z" style="fill:var(--color1, #00b5e2)"/></symbol><symbol id="icon-social-icon-youtube" viewBox="0 0 32 32"><path fill="#fff" d="M.566.444h31.002v31.002H.566V.444z" style="fill:var(--color2, #fff)"/><path fill="#657791" d="M24.774 13.051s-.163-1.196-.707-1.74c-.653-.707-1.414-.707-1.74-.761-2.447-.163-6.09-.163-6.09-.163s-3.643 0-6.09.163c-.326.054-1.087.054-1.74.761-.544.544-.707 1.74-.707 1.74s-.163 1.414-.163 2.827v1.305c0 1.414.163 2.827.163 2.827s.163 1.196.707 1.74c.652.707 1.522.652 1.903.761 1.414.109 5.927.163 5.927.163s3.643 0 6.09-.163c.326-.054 1.087-.054 1.74-.761.544-.544.707-1.74.707-1.74s.163-1.414.163-2.827v-1.305c0-1.414-.163-2.827-.163-2.827zm-10.331 5.764v-4.894l4.676 2.447-4.676 2.447z" style="fill:var(--color3, #657791)"/></symbol><symbol id="icon-social-icon-telegram" viewBox="0 0 32 32"><path fill="#fff" d="M.674.444h31.002v31.002H.674V.444z" style="fill:var(--color2, #fff)"/><path fill="#657791" d="M23.407 9.823a.328.328 0 0 0-.223-.243 1.149 1.149 0 0 0-.604.043s-13.45 4.834-14.218 5.37c-.166.115-.221.182-.248.261-.133.381.281.549.281.549l3.467 1.13c.059.01.119.006.176-.011.789-.498 7.934-5.01 8.347-5.162.065-.02.113 0 .102.048-.169.579-6.34 6.062-6.374 6.096a.135.135 0 0 0-.048.114l-.322 3.383s-.135 1.055.918 0a29.046 29.046 0 0 1 1.823-1.668c1.192.823 2.475 1.733 3.028 2.207a.96.96 0 0 0 .702.271c.528-.02.672-.597.672-.597s2.451-9.861 2.533-11.183c.008-.13.019-.213.02-.301a1.124 1.124 0 0 0-.03-.306z" style="fill:var(--color3, #657791)"/></symbol><symbol id="icon-social-icon-twitter" viewBox="0 0 32 32"><path fill="#fff" d="M.781.444h31.002v31.002H.781V.444z" style="fill:var(--color2, #fff)"/><path fill="#657791" d="M24.413 11.869c-.574.239-1.147.43-1.816.478a3.088 3.088 0 0 0 1.386-1.721 6.047 6.047 0 0 1-2.008.765 3.08 3.08 0 0 0-2.247-1.004 3.152 3.152 0 0 0-3.155 3.155c0 .239.048.478.096.717-2.629-.143-4.923-1.386-6.501-3.298a3.007 3.007 0 0 0-.43 1.577c0 1.099.574 2.055 1.386 2.629a2.919 2.919 0 0 1-1.434-.382v.048c0 1.53 1.099 2.772 2.533 3.059-.287.048-.526.096-.813.096-.191 0-.382 0-.574-.048.382 1.243 1.577 2.151 2.916 2.199-1.052.86-2.438 1.338-3.92 1.338-.239 0-.526 0-.765-.048 1.434.86 3.107 1.386 4.876 1.386 5.784 0 8.939-4.78 8.939-8.939v-.382c.574-.478 1.099-1.004 1.53-1.625z" style="fill:var(--color3, #657791)"/></symbol><symbol id="icon-social-icon-discord" viewBox="0 0 32 32"><path fill="#fff" d="M0 0h31.888v31.888H0V0z" style="fill:var(--color2, #fff)"/><path fill="#657791" d="M14.959 15.953a.76.76 0 0 0 0 1.516.717.717 0 0 0 .507-.233.722.722 0 0 0 .191-.524.733.733 0 0 0-.19-.525.716.716 0 0 0-.507-.232zm2.491 0a.754.754 0 0 0-.745.424.76.76 0 1 0 1.443.333.726.726 0 0 0-.696-.758h-.002z" style="fill:var(--color3, #657791)"/><path fill="#657791" d="M20.771 10.227h-9.147a1.396 1.396 0 0 0-1.294.87c-.07.17-.106.353-.105.538v9.227a1.401 1.401 0 0 0 1.399 1.408h7.741l-.362-1.263.874.811.826.765 1.468 1.297V11.636a1.401 1.401 0 0 0-1.4-1.408zm-2.635 8.916s-.246-.294-.45-.555a2.156 2.156 0 0 0 1.237-.811 3.934 3.934 0 0 1-.785.403c-.318.136-.65.234-.99.294a4.777 4.777 0 0 1-1.768-.007 5.628 5.628 0 0 1-1.003-.294 4.137 4.137 0 0 1-.782-.404c.292.4.715.684 1.195.805-.205.259-.457.567-.457.567a2.479 2.479 0 0 1-2.082-1.038 9.151 9.151 0 0 1 .981-3.98 3.381 3.381 0 0 1 1.92-.717l.068.082a4.61 4.61 0 0 0-1.795.894s.15-.082.403-.198a5.138 5.138 0 0 1 1.551-.43.645.645 0 0 1 .116-.014 5.568 5.568 0 0 1 3.434.641 4.537 4.537 0 0 0-1.7-.867l.096-.109c.699.034 1.37.285 1.92.717a9.134 9.134 0 0 1 .981 3.98 2.495 2.495 0 0 1-2.088 1.039z" style="fill:var(--color3, #657791)"/></symbol><symbol id="icon-solution3" viewBox="0 0 32 32"><path fill="#f0899c" d="M4.938 11.308a.42.42 0 0 1-.337-.674c.264-.346.55-.675.857-.984a.416.416 0 0 1 .58.009.423.423 0 0 1 .02.58 9.21 9.21 0 0 0-.785.901.42.42 0 0 1-.335.167zM13.643 29.161A11.477 11.477 0 0 1 2.186 18.355a.43.43 0 0 1 .106-.305.424.424 0 0 1 .453-.117c.052.018.1.047.142.083s.075.081.099.131a.42.42 0 0 1 .041.159 10.637 10.637 0 0 0 15.282 8.936A10.632 10.632 0 0 0 15.123 7.16a10.623 10.623 0 0 0-6.781 1.317.42.42 0 1 1-.387-.747 11.474 11.474 0 0 1 14.34 2.417 11.463 11.463 0 0 1 2.601 9.798 11.484 11.484 0 0 1-6.183 8.034 11.47 11.47 0 0 1-5.07 1.178zM2.995 15.158a.43.43 0 0 1-.255-.086.427.427 0 0 1-.163-.278.414.414 0 0 1 .01-.164c.119-.447.269-.885.447-1.312a.421.421 0 0 1 .778.322 9.283 9.283 0 0 0-.411 1.204.423.423 0 0 1-.407.315z" style="fill:var(--color4, #f0899c)"/><path fill="#f0899c" d="M13.644 25.34a7.652 7.652 0 0 1-7.505-9.142 7.649 7.649 0 1 1 7.503 9.143zm0-14.459a6.81 6.81 0 1 0 6.808 6.81 6.817 6.817 0 0 0-6.808-6.809z" style="fill:var(--color4, #f0899c)"/><path fill="#f0899c" d="M13.644 21.517a3.833 3.833 0 0 1-3.537-2.363 3.825 3.825 0 0 1 .83-4.172 3.834 3.834 0 0 1 4.172-.83 3.833 3.833 0 0 1 2.363 3.537 3.834 3.834 0 0 1-3.828 3.828zm0-6.814a2.991 2.991 0 0 0-2.76 1.844 2.99 2.99 0 0 0 .648 3.255 2.992 2.992 0 0 0 3.256.648 2.992 2.992 0 0 0 1.844-2.76 2.993 2.993 0 0 0-2.988-2.988z" style="fill:var(--color4, #f0899c)"/><path fill="#f0899c" d="M14.157 17.69a.42.42 0 0 1-.39-.262.424.424 0 0 1 .094-.459L25.239 5.83a.408.408 0 0 1 .3-.124.427.427 0 0 1 .389.265.432.432 0 0 1-.005.325.428.428 0 0 1-.095.136L14.45 17.571a.421.421 0 0 1-.295.12z" style="fill:var(--color4, #f0899c)"/><path fill="#f0899c" d="M27.205 8.254h-.024l-3.23-.181a.42.42 0 0 1-.396-.389l-.258-3.43a.419.419 0 0 1 .123-.331l2.59-2.573a.417.417 0 0 1 .42-.104.42.42 0 0 1 .289.322l.547 2.822 2.535.526a.411.411 0 0 1 .317.292.416.416 0 0 1-.107.418l-2.51 2.502a.422.422 0 0 1-.297.127zm-2.838-1.002 2.674.15 1.826-1.82-2.044-.424a.425.425 0 0 1-.328-.331l-.454-2.325-1.893 1.879.218 2.872zM20.369 30.68a.417.417 0 0 1-.343-.177l-1.871-2.638a.42.42 0 0 1 .246-.662.422.422 0 0 1 .44.176l1.645 2.317 1.773-1.085-1.604-2.446a.412.412 0 0 1 .003-.467.427.427 0 0 1 .433-.176.413.413 0 0 1 .266.181l1.842 2.808a.418.418 0 0 1-.009.475.402.402 0 0 1-.122.114l-2.479 1.518a.426.426 0 0 1-.219.064zM6.919 30.679a.418.418 0 0 1-.22-.062L4.22 29.099a.43.43 0 0 1-.193-.434.418.418 0 0 1 .062-.155l1.842-2.809a.422.422 0 0 1 .704.464L5.031 28.61l1.773 1.086 1.644-2.317c.032-.045.073-.083.119-.113s.099-.049.153-.058a.412.412 0 0 1 .314.072c.045.032.083.073.113.119s.049.099.058.153a.412.412 0 0 1-.072.314l-1.872 2.638a.418.418 0 0 1-.343.177z" style="fill:var(--color4, #f0899c)"/></symbol><symbol id="icon-solution2" viewBox="0 0 32 32"><path fill="#f0899c" d="M21.67 8.331a8.193 8.193 0 0 0-6.458-2.054 8.262 8.262 0 0 0-6.516 11.782 8.268 8.268 0 0 0 3.568 3.724v4.873a.976.976 0 0 0 .973.973h.973v.973a.976.976 0 0 0 .973.973h1.946a.976.976 0 0 0 .973-.973v-.973h.973a.976.976 0 0 0 .973-.973v-4.873a8.264 8.264 0 0 0 3.847-10.208 8.269 8.269 0 0 0-2.224-3.244zm-2.596 15.407v.973h-5.838v-.973h5.838zm-1.945 4.865h-1.947v-.973h1.946v.973zm.486-1.946h-4.378v-.973h5.838v.973h-1.459zm1.732-5.608a.485.485 0 0 0-.273.437v1.279h-2.432v-2.231l1.317-1.317a.487.487 0 0 0-.688-.687l-1.116 1.115-1.116-1.115a.487.487 0 0 0-.687.687l1.317 1.317v2.231h-2.432v-1.279a.492.492 0 0 0-.273-.437 7.297 7.297 0 0 1-4.003-7.787 7.292 7.292 0 0 1 7.205-6.066 7.213 7.213 0 0 1 4.855 1.859c.892.797 1.575 1.802 1.986 2.926s.541 2.331.376 3.517a7.301 7.301 0 0 1-4.036 5.55zM16.155 5.251a.483.483 0 0 0 .486-.487V2.818a.487.487 0 1 0-.973 0v1.946a.49.49 0 0 0 .487.487zM8.931 7.958a.48.48 0 0 0 .534.112.491.491 0 0 0 .266-.266.487.487 0 0 0-.113-.534L8.242 5.894a.491.491 0 0 0-.534-.112.476.476 0 0 0-.302.454.48.48 0 0 0 .148.346L8.93 7.958zM6.425 14.008H4.479a.487.487 0 1 0 0 .973h1.946a.49.49 0 0 0 .344-.831.488.488 0 0 0-.344-.142zM8.931 21.03l-1.376 1.376a.491.491 0 0 0-.112.534.491.491 0 0 0 .266.266.487.487 0 0 0 .534-.113l1.376-1.376a.492.492 0 0 0-.006-.682c-.09-.09-.212-.141-.34-.143s-.25.048-.342.137zM24.067 5.894 22.691 7.27a.476.476 0 0 0-.148.346.48.48 0 0 0 .302.454.487.487 0 0 0 .534-.112l1.376-1.376a.476.476 0 0 0 .148-.346.48.48 0 0 0-.302-.454.487.487 0 0 0-.534.112z" style="fill:var(--color4, #f0899c)"/><path fill="#f0899c" d="M23.379 21.03a.487.487 0 0 0-.688.688l1.376 1.376a.492.492 0 0 0 .682-.006c.09-.09.141-.212.143-.34s-.048-.25-.137-.342l-1.376-1.376zM27.831 14.008h-1.946a.487.487 0 1 0 0 .973h1.946a.483.483 0 0 0 .486-.487.487.487 0 0 0-.486-.486z" style="fill:var(--color4, #f0899c)"/></symbol><symbol id="icon-solution1" viewBox="0 0 32 32"><path fill="#f0899c" d="m31.219 30.422-6.456-17.216c-.046-.183-.229-.275-.412-.275s-.412.091-.458.275l-2.701 7.097L15.56 9.406v-2.06h5.907a.416.416 0 0 0 .32-.137l2.701-2.793a.443.443 0 0 0 0-.641L21.787.982c-.046-.092-.137-.137-.275-.137h-6.41c-.275 0-.458.183-.458.458v8.104l-5.54 10.806-1.419-3.297c-.092-.183-.229-.275-.412-.275s-.366.092-.412.275L1.092 30.423c-.046.137-.046.321.046.412s.229.229.366.229h29.304c.137 0 .275-.092.366-.183.092-.137.137-.275.046-.458zM23.573 4.095 21.329 6.43H15.56V1.76h5.723l2.289 2.335zm-16.3 14.194 5.082 11.859H2.19l5.082-11.859zm6.043 11.858L9.561 21.31l5.54-10.806L25.22 30.147H13.315zm12.958 0-4.487-8.745 2.564-6.776 5.815 15.522h-3.892z" style="fill:var(--color4, #f0899c)"/><path fill="#f0899c" d="M17.987 5.468a.736.736 0 0 0 .321.183c.137 0 .229-.046.321-.092l2.61-2.244c.183-.183.229-.458.046-.641s-.458-.229-.641-.046L18.4 4.505l-.687-.824c-.183-.183-.458-.229-.641-.046s-.229.458-.046.641l.962 1.19zM22.245 28.361c.137.229.412.321.641.183s.32-.412.183-.641l-5.311-9.615c-.137-.229-.412-.321-.641-.183s-.321.412-.183.641l5.311 9.615z" style="fill:var(--color4, #f0899c)"/></symbol><symbol id="icon-star" viewBox="0 0 32 32"><path fill="#f59e0b" d="m15.835.941 4.893 9.913 10.942 1.59-7.917 7.718 1.868 10.898-9.786-5.143-9.786 5.143 1.869-10.898-7.917-7.718 10.942-1.59L15.836.941z" style="fill:var(--color5, #f59e0b)"/></symbol><symbol id="icon-service6" viewBox="0 0 32 32"><path fill="#f0899c" d="M20.6 5.04a6.36 6.36 0 0 0-.08 1c0 3 2.427 5.425 5.413 5.425.333 0 .653-.039.987-.092v10.759c0 4.521-2.667 7.201-7.2 7.201H9.868c-4.535 0-7.201-2.68-7.201-7.201v-9.865c0-4.533 2.667-7.227 7.201-7.227H20.6zm.268 8.107c-.361-.04-.72.12-.935.413l-3.225 4.173-3.695-2.907a1.054 1.054 0 0 0-.76-.213c-.265.04-.505.185-.667.399l-3.945 5.135-.081.12a.997.997 0 0 0 .28 1.267c.187.12.387.2.613.2.308.013.6-.148.787-.4l3.347-4.308 3.8 2.855.12.079a.998.998 0 0 0 1.267-.28l3.853-4.972-.053.027a1.001 1.001 0 0 0-.705-1.587zm5.252-10.48c1.773 0 3.213 1.44 3.213 3.213s-1.44 3.213-3.213 3.213c-1.773 0-3.213-1.44-3.213-3.213s1.44-3.213 3.213-3.213z" style="fill:var(--color4, #f0899c)"/></symbol><symbol id="icon-service5" viewBox="0 0 32 32"><path fill="#f0899c" d="M11.04 3.334c.84.026 1.653.172 2.441.44h.079a.452.452 0 0 1 .12.079 4.7 4.7 0 0 1 .84.348l.507.227c.2.107.44.305.573.387.133.079.28.16.4.252a8.352 8.352 0 0 1 5.133-1.732c.841 0 1.681.119 2.48.387 4.921 1.6 6.695 7 5.213 11.72a16.969 16.969 0 0 1-4.012 6.412 51.28 51.28 0 0 1-8.441 6.613l-.333.201-.347-.215a50.82 50.82 0 0 1-8.492-6.613 17.253 17.253 0 0 1-4.015-6.399c-1.507-4.72.267-10.12 5.241-11.748a6.053 6.053 0 0 1 1.185-.279h.16a7.69 7.69 0 0 1 1.12-.08h.147zm11.88 4.214a1.068 1.068 0 0 0-1.347.667 1.09 1.09 0 0 0 .667 1.372c.855.32 1.427 1.161 1.427 2.093v.041c-.025.305.067.6.253.827s.467.359.76.387a1.096 1.096 0 0 0 1.053-1.015v-.159c.04-1.868-1.092-3.56-2.813-4.213z" style="fill:var(--color4, #f0899c)"/></symbol><symbol id="icon-service4" viewBox="0 0 32 32"><path fill="#f0899c" d="M29.08 17.087c.096.054.115.168.119.212l.001.017-.107 6.886c0 2.747-2.128 4.987-4.808 5.124l-.261.007H7.963c-2.714 0-4.927-2.154-5.063-4.867l-.007-.264-.093-6.886s0-.162.12-.23c.107-.068.24.013.253.027 2.695 1.809 5.936 3.011 9.338 3.511.48.067.96-.243 1.094-.729.275-1.038 1.125-1.744 2.164-1.828l.21-.008h.04c1.134 0 2.081.729 2.375 1.836.133.486.614.797 1.094.729 3.402-.5 6.643-1.701 9.338-3.511l.053-.027c.053-.027.133-.041.2 0zM15.993 19.99c-.501 0-.924.386-.991.876l-.009.136v1.742c0 .567.454 1.013 1.001 1.013a.994.994 0 0 0 .992-.874l.009-.139v-1.742c0-.554-.44-1.013-1-1.013zm1.721-17.323c2.001 0 3.642 1.526 3.895 3.484h2.641c2.801 0 5.083 2.309 5.083 5.144 0 0-.08 1.2-.107 2.872a.441.441 0 0 1-.172.34c-.642.474-1.229.865-1.282.892-2.214 1.485-4.788 2.53-7.529 3.05a.425.425 0 0 1-.446-.217 4.396 4.396 0 0 0-3.805-2.198c-1.59 0-3.039.857-3.83 2.19a.424.424 0 0 1-.443.213C9 17.916 6.427 16.872 4.226 15.413l-1.281-.891a.38.38 0 0 1-.173-.324c-.04-.689-.107-2.903-.107-2.903 0-2.835 2.281-5.144 5.083-5.144h2.628c.253-1.958 1.894-3.484 3.895-3.484h3.442zm0 2.025h-3.442c-.894 0-1.654.621-1.868 1.458h7.177a1.937 1.937 0 0 0-1.868-1.458z" style="fill:var(--color4, #f0899c)"/></symbol><symbol id="icon-service3" viewBox="0 0 32 32"><path fill="#f0899c" d="m12.373 21.099 6.473.02c.404.001.73.339.73.754v3.641c0 .416-.236.792-.604.966l-5.876 2.759a1.01 1.01 0 0 1-.984-.073 1.07 1.07 0 0 1-.474-.892v-6.42c0-.417.329-.755.734-.754zM26.496 2.667c1.568 0 2.838 1.308 2.838 2.923v2.042c0 .783-.306 1.536-.85 2.084l-8.673 8.773a.779.779 0 0 1-.563.236l-7.262-.023a.79.79 0 0 1-.582-.26L3.433 9.676a2.972 2.972 0 0 1-.766-2V5.59c0-1.615 1.27-2.924 2.838-2.924h20.992z" style="fill:var(--color4, #f0899c)"/></symbol><symbol id="icon-service2" viewBox="0 0 32 32"><path fill="#f0899c" d="M11.941 6.613a1.469 1.469 0 0 1 1.594.794c.071.107.128.222.169.344.181 2.796.374 5.544.555 8.293-.004.286.041.57.133.841.217.533.756.872 1.34.841l8.875-.569.06.024.162.012c.321.041.62.187.847.418.265.269.41.63.404 1.004-.35 5.096-4.086 9.354-9.171 10.451s-10.297-1.23-12.793-5.712a10.948 10.948 0 0 1-1.364-4.182 7.924 7.924 0 0 1-.085-1.315c.017-5.419 3.875-10.096 9.273-11.242zm5.277-3.945c6.094.182 11.188 4.607 12.111 10.52a.32.32 0 0 1 0 .107l-.002.167c-.02.221-.111.431-.261.6-.188.211-.454.34-.739.358l-10.408.679a1.222 1.222 0 0 1-.756-.31 1.17 1.17 0 0 1-.391-.878l-.688-10.058v-.166c.013-.283.139-.549.352-.74s.495-.291.783-.278z" style="fill:var(--color4, #f0899c)"/></symbol><symbol id="icon-service1" viewBox="0 0 32 32"><path fill="#f0899c" d="M22.226 2.667c4.535 0 7.095 2.572 7.108 7.107v12.453c0 4.533-2.573 7.107-7.108 7.107H9.774c-4.535 0-7.107-2.573-7.107-7.107V9.774c0-4.535 2.572-7.107 7.107-7.107h12.452zm-5.559 5.507a1.12 1.12 0 0 0-1.708 1.053v13.587c.068.573.547 1 1.107 1 .575 0 1.053-.427 1.107-1V9.227a1.087 1.087 0 0 0-.505-1.053zm-6.226 4.373a1.095 1.095 0 0 0-1.173 0c-.361.227-.56.639-.52 1.053v9.213c.052.573.532 1 1.105 1 .575 0 1.053-.427 1.107-1V13.6a1.121 1.121 0 0 0-.519-1.053zm12.345 4.84a1.116 1.116 0 0 0-1.185 0c-.361.227-.56.625-.507 1.053v4.373c.053.573.532 1 1.107 1 .56 0 1.039-.427 1.107-1V18.44a1.11 1.11 0 0 0-.521-1.053z" style="fill:var(--color4, #f0899c)"/></symbol><symbol id="icon-Logo" viewBox="0 0 32 32"><path fill="#00b5e2" d="m14.068 2.78 17.356 17.203v9.236h-8.1v-5.916L10.718 10.808H8.099v18.411h-8.1V2.78h14.068zm9.256 9.176V2.781h8.1v9.175h-8.1z" style="fill:var(--color1, #00b5e2)"/><path fill="#f0899c" d="M23.322 2.78h8.102v9.185h-8.102V2.78z" style="fill:var(--color4, #f0899c)"/></symbol></defs></svg>