<svg aria-hidden="true" style="position: absolute; width: 0; height: 0; overflow: hidden;" version="1.1" xmlns="http://www.w3.org/2000/svg" xmlns:xlink="http://www.w3.org/1999/xlink">
<defs>
<symbol id="icon-right-arrow" viewBox="0 0 32 32">
<path fill="#00b5e2" style="fill: var(--color1, #00b5e2)" d="M19.2 3.201l-2.24 2.24 8.96 8.96h-25.92v3.2h25.92l-8.96 8.96 2.24 2.24 12.8-12.8-12.8-12.8z"></path>
</symbol>
<symbol id="icon-social-icon-youtube" viewBox="0 0 32 32">
<path fill="#fff" style="fill: var(--color2, #fff)" d="M0.566 0.444h31.002v31.002h-31.002v-31.002z"></path>
<path fill="#657791" style="fill: var(--color3, #657791)" d="M24.774 13.051c0 0-0.163-1.196-0.707-1.74-0.653-0.707-1.414-0.707-1.74-0.761-2.447-0.163-6.090-0.163-6.090-0.163s-3.643 0-6.090 0.163c-0.326 0.054-1.087 0.054-1.74 0.761-0.544 0.544-0.707 1.74-0.707 1.74s-0.163 1.414-0.163 2.827v1.305c0 1.414 0.163 2.827 0.163 2.827s0.163 1.196 0.707 1.74c0.652 0.707 1.522 0.652 1.903 0.761 1.414 0.109 5.927 0.163 5.927 0.163s3.643 0 6.090-0.163c0.326-0.054 1.087-0.054 1.74-0.761 0.544-0.544 0.707-1.74 0.707-1.74s0.163-1.414 0.163-2.827v-1.305c0-1.414-0.163-2.827-0.163-2.827zM14.443 18.815v-4.894l4.676 2.447-4.676 2.447z"></path>
</symbol>
<symbol id="icon-social-icon-telegram" viewBox="0 0 32 32">
<path fill="#fff" style="fill: var(--color2, #fff)" d="M0.674 0.444h31.002v31.002h-31.002v-31.002z"></path>
<path fill="#657791" style="fill: var(--color3, #657791)" d="M23.407 9.823c-0.012-0.057-0.039-0.109-0.079-0.152s-0.089-0.074-0.144-0.091c-0.202-0.040-0.41-0.025-0.604 0.043 0 0-13.45 4.834-14.218 5.37-0.166 0.115-0.221 0.182-0.248 0.261-0.133 0.381 0.281 0.549 0.281 0.549l3.467 1.13c0.059 0.010 0.119 0.006 0.176-0.011 0.789-0.498 7.934-5.010 8.347-5.162 0.065-0.020 0.113 0 0.102 0.048-0.169 0.579-6.34 6.062-6.374 6.096-0.017 0.014-0.030 0.031-0.038 0.051s-0.012 0.041-0.010 0.063l-0.322 3.383c0 0-0.135 1.055 0.918 0 0.747-0.748 1.464-1.367 1.823-1.668 1.192 0.823 2.475 1.733 3.028 2.207 0.093 0.090 0.203 0.161 0.323 0.207s0.25 0.069 0.379 0.064c0.528-0.020 0.672-0.597 0.672-0.597s2.451-9.861 2.533-11.183c0.008-0.13 0.019-0.213 0.020-0.301 0.004-0.103-0.006-0.206-0.030-0.306z"></path>
</symbol>
<symbol id="icon-social-icon-twitter" viewBox="0 0 32 32">
<path fill="#fff" style="fill: var(--color2, #fff)" d="M0.781 0.444h31.002v31.002h-31.002v-31.002z"></path>
<path fill="#657791" style="fill: var(--color3, #657791)" d="M24.413 11.869c-0.574 0.239-1.147 0.43-1.816 0.478 0.669-0.382 1.147-1.004 1.386-1.721-0.621 0.382-1.291 0.621-2.008 0.765-0.574-0.621-1.386-1.004-2.247-1.004-1.721 0-3.155 1.386-3.155 3.155 0 0.239 0.048 0.478 0.096 0.717-2.629-0.143-4.923-1.386-6.501-3.298-0.287 0.478-0.43 1.004-0.43 1.577 0 1.099 0.574 2.055 1.386 2.629-0.526 0-1.004-0.143-1.434-0.382v0.048c0 1.53 1.099 2.772 2.533 3.059-0.287 0.048-0.526 0.096-0.813 0.096-0.191 0-0.382 0-0.574-0.048 0.382 1.243 1.577 2.151 2.916 2.199-1.052 0.86-2.438 1.338-3.92 1.338-0.239 0-0.526 0-0.765-0.048 1.434 0.86 3.107 1.386 4.876 1.386 5.784 0 8.939-4.78 8.939-8.939 0-0.143 0-0.287 0-0.382 0.574-0.478 1.099-1.004 1.53-1.625z"></path>
</symbol>
<symbol id="icon-social-icon-discord" viewBox="0 0 32 32">
<path fill="#fff" style="fill: var(--color2, #fff)" d="M0 0h31.888v31.888h-31.888v-31.888z"></path>
<path fill="#657791" style="fill: var(--color3, #657791)" d="M14.959 15.953c-0.19 0.016-0.368 0.102-0.497 0.243s-0.201 0.324-0.201 0.515 0.072 0.375 0.201 0.515c0.129 0.14 0.307 0.227 0.497 0.243 0.096-0.003 0.19-0.026 0.277-0.066s0.165-0.097 0.23-0.167c0.065-0.070 0.115-0.153 0.148-0.243s0.047-0.186 0.043-0.281c0.005-0.096-0.010-0.191-0.042-0.282s-0.083-0.173-0.148-0.243c-0.065-0.071-0.143-0.127-0.23-0.167s-0.181-0.062-0.277-0.065zM17.45 15.953c-0.152-0.013-0.305 0.021-0.438 0.097s-0.24 0.19-0.307 0.327c-0.067 0.137-0.091 0.292-0.069 0.443s0.089 0.293 0.193 0.405c0.104 0.113 0.239 0.191 0.388 0.226s0.305 0.023 0.448-0.033 0.265-0.153 0.351-0.279c0.086-0.126 0.132-0.276 0.132-0.429 0.004-0.096-0.010-0.191-0.043-0.281s-0.083-0.172-0.147-0.243c-0.065-0.070-0.143-0.127-0.23-0.168s-0.181-0.063-0.276-0.066h-0.002z"></path>
<path fill="#657791" style="fill: var(--color3, #657791)" d="M20.771 10.227h-9.147c-0.184 0-0.367 0.037-0.537 0.108s-0.325 0.175-0.454 0.306c-0.13 0.131-0.233 0.286-0.303 0.456s-0.106 0.353-0.105 0.538v9.227c-0.001 0.184 0.035 0.367 0.105 0.538s0.173 0.326 0.303 0.456c0.13 0.131 0.284 0.235 0.454 0.306s0.353 0.108 0.537 0.108h7.741l-0.362-1.263 0.874 0.811 0.826 0.765 1.468 1.297v-12.244c0.001-0.184-0.035-0.367-0.105-0.538s-0.173-0.326-0.303-0.456c-0.13-0.131-0.284-0.235-0.455-0.306s-0.353-0.108-0.537-0.108v0zM18.136 19.143c0 0-0.246-0.294-0.45-0.555 0.495-0.116 0.933-0.403 1.237-0.811-0.246 0.163-0.509 0.299-0.785 0.403-0.318 0.136-0.65 0.234-0.99 0.294-0.585 0.108-1.184 0.105-1.768-0.007-0.343-0.067-0.679-0.165-1.003-0.294-0.274-0.106-0.536-0.242-0.782-0.404 0.292 0.4 0.715 0.684 1.195 0.805-0.205 0.259-0.457 0.567-0.457 0.567-0.405 0.011-0.807-0.078-1.171-0.259s-0.676-0.448-0.911-0.779c0.022-1.384 0.357-2.744 0.981-3.98 0.55-0.432 1.221-0.682 1.92-0.717l0.068 0.082c-0.657 0.163-1.27 0.468-1.795 0.894 0 0 0.15-0.082 0.403-0.198 0.491-0.224 1.015-0.369 1.551-0.43 0.038-0.008 0.077-0.013 0.116-0.014 0.457-0.060 0.92-0.064 1.379-0.014 0.721 0.082 1.419 0.305 2.055 0.655-0.499-0.406-1.078-0.702-1.7-0.867l0.096-0.109c0.699 0.034 1.37 0.285 1.92 0.717 0.624 1.235 0.96 2.596 0.981 3.98-0.237 0.33-0.551 0.598-0.915 0.779s-0.767 0.271-1.173 0.26z"></path>
</symbol>
<symbol id="icon-solution3" viewBox="0 0 32 32">
<path fill="#f0899c" style="fill: var(--color4, #f0899c)" d="M4.938 11.308c-0.078 0-0.155-0.022-0.221-0.063s-0.12-0.1-0.155-0.17c-0.035-0.070-0.050-0.148-0.043-0.226s0.036-0.152 0.082-0.215c0.264-0.346 0.55-0.675 0.857-0.984 0.079-0.073 0.184-0.113 0.292-0.112s0.211 0.045 0.288 0.121c0.077 0.076 0.122 0.178 0.126 0.286s-0.035 0.213-0.106 0.294c-0.281 0.283-0.543 0.584-0.785 0.901-0.039 0.052-0.090 0.094-0.148 0.123s-0.122 0.044-0.187 0.044z"></path>
<path fill="#f0899c" style="fill: var(--color4, #f0899c)" d="M13.643 29.161c-2.928-0.001-5.744-1.12-7.874-3.128s-3.411-4.755-3.583-7.678c-0.003-0.055 0.005-0.111 0.023-0.163s0.047-0.1 0.083-0.142c0.037-0.041 0.081-0.075 0.131-0.099s0.104-0.038 0.159-0.041c0.055-0.003 0.111 0.005 0.163 0.023s0.1 0.047 0.142 0.083 0.075 0.081 0.099 0.131c0.024 0.050 0.038 0.104 0.041 0.159 0.103 1.748 0.636 3.444 1.552 4.937s2.186 2.736 3.698 3.62c1.512 0.884 3.218 1.381 4.968 1.447s3.489-0.301 5.064-1.068c1.508-0.737 2.821-1.82 3.83-3.162s1.686-2.903 1.976-4.556 0.184-3.352-0.309-4.957c-0.493-1.605-1.359-3.070-2.526-4.276-1.646-1.7-3.813-2.802-6.157-3.131s-4.73 0.135-6.781 1.317c-0.064 0.037-0.136 0.057-0.21 0.057-0.097 0.001-0.19-0.031-0.266-0.091s-0.128-0.144-0.149-0.239c-0.021-0.094-0.009-0.193 0.035-0.279s0.115-0.155 0.203-0.195c1.526-0.873 3.232-1.383 4.986-1.492s3.51 0.188 5.132 0.865c1.622 0.678 3.066 1.719 4.222 3.044s1.991 2.897 2.442 4.596c0.451 1.699 0.506 3.479 0.159 5.202s-1.084 3.344-2.156 4.737c-1.072 1.393-2.45 2.521-4.027 3.297s-3.312 1.179-5.070 1.178z"></path>
<path fill="#f0899c" style="fill: var(--color4, #f0899c)" d="M2.995 15.158c-0.036 0-0.072-0.005-0.107-0.014-0.053-0.014-0.104-0.038-0.148-0.072s-0.081-0.075-0.109-0.123c-0.028-0.048-0.046-0.101-0.054-0.155s-0.004-0.11 0.010-0.164c0.119-0.447 0.269-0.885 0.447-1.312 0.043-0.103 0.124-0.185 0.228-0.228s0.219-0.043 0.322-0c0.103 0.043 0.185 0.125 0.228 0.228s0.043 0.219 0 0.322c-0.164 0.391-0.302 0.794-0.411 1.204-0.024 0.090-0.076 0.17-0.15 0.227s-0.164 0.088-0.257 0.088z"></path>
<path fill="#f0899c" style="fill: var(--color4, #f0899c)" d="M13.644 25.34c-1.513 0-2.992-0.448-4.251-1.289s-2.239-2.035-2.818-3.433-0.731-2.936-0.436-4.42c0.295-1.484 1.024-2.847 2.094-3.917s2.433-1.799 3.917-2.094c1.484-0.295 3.022-0.144 4.42 0.435s2.593 1.56 3.433 2.818 1.289 2.737 1.289 4.251c-0.002 2.028-0.809 3.973-2.243 5.407s-3.379 2.241-5.407 2.243zM13.644 10.881c-1.347-0-2.663 0.399-3.783 1.147s-1.993 1.811-2.508 3.056c-0.515 1.244-0.65 2.613-0.388 3.934s0.911 2.534 1.863 3.487c0.952 0.952 2.165 1.601 3.486 1.864s2.69 0.128 3.934-0.387c1.244-0.515 2.308-1.388 3.056-2.508s1.148-2.436 1.148-3.783c-0.002-1.805-0.72-3.536-1.996-4.812s-3.007-1.995-4.812-1.997z"></path>
<path fill="#f0899c" style="fill: var(--color4, #f0899c)" d="M13.644 21.517c-0.757 0-1.498-0.225-2.127-0.645s-1.12-1.019-1.41-1.718c-0.29-0.7-0.366-1.47-0.218-2.212s0.512-1.425 1.048-1.96c0.535-0.535 1.218-0.9 1.96-1.048s1.513-0.072 2.212 0.218 1.298 0.781 1.718 1.41c0.421 0.63 0.645 1.37 0.645 2.127-0.001 1.015-0.405 1.989-1.122 2.706s-1.691 1.121-2.706 1.122zM13.644 14.703c-0.591 0-1.168 0.175-1.66 0.503s-0.874 0.795-1.1 1.341c-0.226 0.546-0.285 1.147-0.17 1.726s0.4 1.112 0.818 1.529c0.418 0.418 0.95 0.702 1.53 0.818s1.18 0.056 1.726-0.17c0.546-0.226 1.012-0.609 1.341-1.1s0.503-1.069 0.503-1.66c-0.001-0.792-0.316-1.552-0.876-2.112s-1.32-0.875-2.112-0.876z"></path>
<path fill="#f0899c" style="fill: var(--color4, #f0899c)" d="M14.157 17.69c-0.084-0-0.165-0.025-0.235-0.072s-0.123-0.113-0.155-0.19c-0.032-0.077-0.039-0.162-0.023-0.244s0.058-0.157 0.117-0.215l11.378-11.139c0.039-0.040 0.086-0.071 0.137-0.092s0.107-0.032 0.163-0.032 0.111 0.011 0.162 0.033c0.051 0.022 0.098 0.053 0.137 0.093s0.070 0.087 0.090 0.139 0.031 0.107 0.030 0.163c-0.001 0.056-0.013 0.111-0.035 0.162s-0.055 0.097-0.095 0.136l-11.378 11.139c-0.079 0.077-0.184 0.12-0.295 0.12z"></path>
<path fill="#f0899c" style="fill: var(--color4, #f0899c)" d="M27.205 8.254h-0.024l-3.23-0.181c-0.102-0.006-0.198-0.048-0.271-0.12s-0.117-0.167-0.125-0.269l-0.258-3.43c-0.005-0.061 0.004-0.122 0.025-0.179s0.055-0.109 0.098-0.152l2.59-2.573c0.054-0.054 0.122-0.092 0.196-0.11s0.152-0.016 0.224 0.006 0.138 0.064 0.189 0.121c0.051 0.057 0.086 0.126 0.1 0.201l0.547 2.822 2.535 0.526c0.074 0.016 0.143 0.051 0.199 0.102s0.097 0.117 0.118 0.19c0.022 0.073 0.023 0.15 0.004 0.224s-0.057 0.141-0.111 0.194l-2.51 2.502c-0.039 0.040-0.085 0.071-0.136 0.093s-0.106 0.033-0.161 0.034zM24.367 7.252l2.674 0.15 1.826-1.82-2.044-0.424c-0.081-0.017-0.155-0.057-0.214-0.116s-0.098-0.134-0.114-0.215l-0.454-2.325-1.893 1.879 0.218 2.872z"></path>
<path fill="#f0899c" style="fill: var(--color4, #f0899c)" d="M20.369 30.68c-0.067 0-0.134-0.016-0.193-0.047s-0.111-0.076-0.15-0.13l-1.871-2.638c-0.033-0.045-0.058-0.096-0.071-0.151s-0.016-0.111-0.007-0.166c0.009-0.055 0.028-0.108 0.058-0.156s0.068-0.089 0.114-0.121c0.046-0.032 0.097-0.056 0.152-0.068s0.111-0.013 0.166-0.003c0.055 0.010 0.108 0.031 0.155 0.062s0.087 0.070 0.119 0.117l1.645 2.317 1.773-1.085-1.604-2.446c-0.030-0.046-0.051-0.098-0.062-0.152s-0.010-0.11 0.001-0.164c0.011-0.054 0.033-0.106 0.064-0.151s0.071-0.085 0.117-0.115c0.046-0.030 0.098-0.051 0.152-0.062s0.11-0.010 0.164 0.001c0.054 0.011 0.106 0.033 0.151 0.064s0.085 0.071 0.115 0.117l1.842 2.808c0.031 0.047 0.052 0.1 0.062 0.155s0.009 0.112-0.003 0.167c-0.012 0.055-0.036 0.107-0.068 0.153s-0.074 0.085-0.122 0.114l-2.479 1.518c-0.066 0.041-0.142 0.063-0.219 0.064z"></path>
<path fill="#f0899c" style="fill: var(--color4, #f0899c)" d="M6.919 30.679c-0.077 0-0.154-0.021-0.22-0.062l-2.479-1.518c-0.048-0.029-0.090-0.068-0.122-0.114s-0.056-0.098-0.068-0.153-0.013-0.112-0.003-0.167c0.010-0.055 0.031-0.108 0.062-0.155l1.842-2.809c0.061-0.093 0.157-0.158 0.267-0.181s0.223-0.001 0.317 0.061c0.093 0.061 0.159 0.157 0.181 0.267s0.001 0.223-0.061 0.317l-1.604 2.445 1.773 1.086 1.644-2.317c0.032-0.045 0.073-0.083 0.119-0.113s0.099-0.049 0.153-0.058c0.055-0.009 0.11-0.008 0.164 0.005s0.105 0.035 0.15 0.067c0.045 0.032 0.083 0.073 0.113 0.119s0.049 0.099 0.058 0.153 0.008 0.11-0.005 0.164c-0.012 0.054-0.035 0.105-0.067 0.15l-1.872 2.638c-0.039 0.055-0.090 0.099-0.15 0.13s-0.126 0.047-0.193 0.047z"></path>
</symbol>
<symbol id="icon-solution2" viewBox="0 0 32 32">
<path fill="#f0899c" style="fill: var(--color4, #f0899c)" d="M21.67 8.331c-0.868-0.783-1.893-1.371-3.007-1.725s-2.29-0.467-3.451-0.329c-1.752 0.2-3.394 0.955-4.686 2.155s-2.167 2.781-2.496 4.513c-0.329 1.732-0.096 3.524 0.666 5.114s2.012 2.895 3.568 3.724v4.873c0 0.258 0.103 0.505 0.285 0.688s0.43 0.285 0.688 0.285h0.973v0.973c0 0.258 0.103 0.505 0.285 0.688s0.43 0.285 0.688 0.285h1.946c0.258-0 0.505-0.103 0.688-0.285s0.285-0.43 0.285-0.688v-0.973h0.973c0.258-0 0.505-0.103 0.688-0.285s0.285-0.43 0.285-0.688v-4.873c1.174-0.625 2.18-1.525 2.932-2.622s1.228-2.36 1.387-3.681-0.003-2.66-0.472-3.905c-0.47-1.245-1.233-2.358-2.224-3.244zM19.074 23.738v0.973h-5.838v-0.973h5.838zM17.129 28.603h-1.947v-0.973h1.946l0 0.973zM17.615 26.657h-4.378v-0.973h5.838v0.973h-1.459zM19.347 21.049c-0.082 0.040-0.151 0.102-0.199 0.179s-0.074 0.167-0.074 0.258v1.279h-2.432v-2.231l1.317-1.317c0.089-0.092 0.138-0.215 0.137-0.342s-0.052-0.25-0.143-0.34-0.212-0.141-0.34-0.142c-0.128-0.001-0.25 0.048-0.342 0.137l-1.116 1.115-1.116-1.115c-0.092-0.089-0.215-0.138-0.342-0.137s-0.25 0.052-0.34 0.142c-0.090 0.090-0.141 0.212-0.142 0.34s0.048 0.25 0.137 0.342l1.317 1.317v2.231h-2.432v-1.279c0-0.091-0.026-0.18-0.074-0.258s-0.117-0.139-0.199-0.179c-1.42-0.69-2.578-1.822-3.3-3.226s-0.968-3.005-0.703-4.561 1.029-2.984 2.176-4.070c1.147-1.085 2.614-1.769 4.183-1.949 0.281-0.031 0.563-0.047 0.846-0.047 1.793-0.005 3.524 0.657 4.855 1.859 0.892 0.797 1.575 1.802 1.986 2.926s0.541 2.331 0.376 3.517c-0.165 1.185-0.62 2.312-1.324 3.279s-1.635 1.748-2.712 2.271v0z"></path>
<path fill="#f0899c" style="fill: var(--color4, #f0899c)" d="M16.155 5.251c0.129 0 0.253-0.051 0.344-0.143s0.142-0.215 0.142-0.344v-1.946c0-0.129-0.051-0.253-0.142-0.344s-0.215-0.143-0.344-0.143c-0.129 0-0.253 0.051-0.344 0.143s-0.143 0.215-0.143 0.344v1.946c0 0.129 0.051 0.253 0.143 0.344s0.215 0.143 0.344 0.143z"></path>
<path fill="#f0899c" style="fill: var(--color4, #f0899c)" d="M8.931 7.958c0.045 0.046 0.098 0.084 0.158 0.109s0.123 0.039 0.188 0.039 0.129-0.012 0.188-0.036c0.060-0.024 0.114-0.061 0.16-0.106s0.082-0.1 0.106-0.16c0.024-0.060 0.037-0.124 0.036-0.188s-0.014-0.128-0.040-0.188-0.063-0.113-0.109-0.158l-1.376-1.376c-0.045-0.046-0.099-0.084-0.158-0.109s-0.123-0.039-0.188-0.039c-0.065-0.001-0.129 0.012-0.188 0.036s-0.114 0.061-0.16 0.106c-0.046 0.046-0.082 0.1-0.106 0.16s-0.037 0.124-0.036 0.188c0.001 0.065 0.014 0.128 0.039 0.188s0.063 0.113 0.109 0.158l1.376 1.376z"></path>
<path fill="#f0899c" style="fill: var(--color4, #f0899c)" d="M6.425 14.008h-1.946c-0.129 0-0.253 0.051-0.344 0.142s-0.143 0.215-0.143 0.344 0.051 0.253 0.143 0.344c0.091 0.091 0.215 0.143 0.344 0.143h1.946c0.129 0 0.253-0.051 0.344-0.143s0.143-0.215 0.143-0.344c0-0.129-0.051-0.253-0.143-0.344s-0.215-0.142-0.344-0.142z"></path>
<path fill="#f0899c" style="fill: var(--color4, #f0899c)" d="M8.931 21.030l-1.376 1.376c-0.046 0.045-0.084 0.099-0.109 0.158s-0.039 0.123-0.039 0.188 0.012 0.129 0.036 0.188c0.024 0.060 0.061 0.114 0.106 0.16s0.1 0.082 0.16 0.106 0.124 0.037 0.188 0.036c0.065-0.001 0.128-0.014 0.188-0.040s0.113-0.063 0.158-0.109l1.376-1.376c0.089-0.092 0.138-0.215 0.136-0.342s-0.052-0.25-0.142-0.34c-0.090-0.090-0.212-0.141-0.34-0.143s-0.25 0.048-0.342 0.137z"></path>
<path fill="#f0899c" style="fill: var(--color4, #f0899c)" d="M24.067 5.894l-1.376 1.376c-0.047 0.045-0.084 0.099-0.109 0.158s-0.039 0.123-0.039 0.188c-0.001 0.065 0.012 0.129 0.036 0.188s0.061 0.114 0.106 0.16c0.046 0.046 0.1 0.082 0.16 0.106s0.124 0.037 0.188 0.036 0.128-0.014 0.188-0.039c0.059-0.025 0.113-0.063 0.158-0.109l1.376-1.376c0.047-0.045 0.084-0.099 0.109-0.158s0.039-0.123 0.039-0.188c0.001-0.065-0.012-0.129-0.036-0.188s-0.061-0.114-0.106-0.16c-0.046-0.046-0.1-0.082-0.16-0.106s-0.124-0.037-0.188-0.036-0.128 0.014-0.188 0.039c-0.059 0.026-0.113 0.063-0.158 0.109z"></path>
<path fill="#f0899c" style="fill: var(--color4, #f0899c)" d="M23.379 21.030c-0.092-0.089-0.215-0.138-0.342-0.137s-0.25 0.052-0.34 0.143c-0.090 0.090-0.141 0.212-0.142 0.34s0.048 0.25 0.136 0.342l1.376 1.376c0.092 0.089 0.215 0.138 0.342 0.136s0.25-0.052 0.34-0.142c0.090-0.090 0.141-0.212 0.143-0.34s-0.048-0.25-0.137-0.342l-1.376-1.376z"></path>
<path fill="#f0899c" style="fill: var(--color4, #f0899c)" d="M27.831 14.008h-1.946c-0.129 0-0.253 0.051-0.344 0.142s-0.143 0.215-0.143 0.344 0.051 0.253 0.143 0.344c0.091 0.091 0.215 0.143 0.344 0.143h1.946c0.129 0 0.253-0.051 0.344-0.143s0.142-0.215 0.142-0.344c0-0.129-0.051-0.253-0.142-0.344s-0.215-0.142-0.344-0.142z"></path>
</symbol>
<symbol id="icon-solution1" viewBox="0 0 32 32">
<path fill="#f0899c" style="fill: var(--color4, #f0899c)" d="M31.219 30.422l-6.456-17.216c-0.046-0.183-0.229-0.275-0.412-0.275s-0.412 0.091-0.458 0.275l-2.701 7.097-5.632-10.897v-2.060h5.907c0.137 0 0.229-0.046 0.32-0.137l2.701-2.793c0.183-0.183 0.183-0.458 0-0.641l-2.701-2.793c-0.046-0.092-0.137-0.137-0.275-0.137h-6.41c-0.275 0-0.458 0.183-0.458 0.458v8.104l-5.54 10.806-1.419-3.297c-0.092-0.183-0.229-0.275-0.412-0.275s-0.366 0.092-0.412 0.275l-5.769 13.507c-0.046 0.137-0.046 0.321 0.046 0.412s0.229 0.229 0.366 0.229h29.304c0.137 0 0.275-0.092 0.366-0.183 0.092-0.137 0.137-0.275 0.046-0.458zM23.573 4.095l-2.244 2.335h-5.769v-4.67h5.723l2.289 2.335zM7.273 18.289l5.082 11.859h-10.165l5.082-11.859zM13.316 30.147l-3.755-8.837 5.54-10.806 10.119 19.643c-4.167 0-7.509 0-11.905 0zM26.274 30.147l-4.487-8.745 2.564-6.776 5.815 15.522h-3.892z"></path>
<path fill="#f0899c" style="fill: var(--color4, #f0899c)" d="M17.987 5.468c0.092 0.092 0.183 0.137 0.321 0.183 0.137 0 0.229-0.046 0.321-0.092l2.61-2.244c0.183-0.183 0.229-0.458 0.046-0.641s-0.458-0.229-0.641-0.046l-2.244 1.877-0.687-0.824c-0.183-0.183-0.458-0.229-0.641-0.046s-0.229 0.458-0.046 0.641l0.962 1.19z"></path>
<path fill="#f0899c" style="fill: var(--color4, #f0899c)" d="M22.245 28.361c0.137 0.229 0.412 0.321 0.641 0.183s0.32-0.412 0.183-0.641l-5.311-9.615c-0.137-0.229-0.412-0.321-0.641-0.183s-0.321 0.412-0.183 0.641l5.311 9.615z"></path>
</symbol>
<symbol id="icon-star" viewBox="0 0 32 32">
<path fill="#f59e0b" style="fill: var(--color5, #f59e0b)" d="M15.835 0.941l4.893 9.913 10.942 1.59-7.917 7.718 1.868 10.898-9.786-5.143-9.786 5.143 1.869-10.898-7.917-7.718 10.942-1.59 4.893-9.913z"></path>
</symbol>
<symbol id="icon-service6" viewBox="0 0 32 32">
<path fill="#f0899c" style="fill: var(--color4, #f0899c)" d="M20.6 5.040c-0.053 0.333-0.080 0.667-0.080 1 0 3 2.427 5.425 5.413 5.425 0.333 0 0.653-0.039 0.987-0.092v10.759c0 4.521-2.667 7.201-7.2 7.201h-9.852c-4.535 0-7.201-2.68-7.201-7.201v-9.865c0-4.533 2.667-7.227 7.201-7.227h10.732zM20.868 13.147c-0.361-0.040-0.72 0.12-0.935 0.413l-3.225 4.173-3.695-2.907c-0.227-0.173-0.493-0.241-0.76-0.213-0.265 0.040-0.505 0.185-0.667 0.399l-3.945 5.135-0.081 0.12c-0.227 0.425-0.12 0.972 0.28 1.267 0.187 0.12 0.387 0.2 0.613 0.2 0.308 0.013 0.6-0.148 0.787-0.4l3.347-4.308 3.8 2.855 0.12 0.079c0.427 0.227 0.96 0.121 1.267-0.28l3.853-4.972-0.053 0.027c0.213-0.293 0.253-0.667 0.107-1-0.145-0.333-0.467-0.56-0.812-0.587zM26.12 2.667c1.773 0 3.213 1.44 3.213 3.213s-1.44 3.213-3.213 3.213c-1.773 0-3.213-1.44-3.213-3.213s1.44-3.213 3.213-3.213z"></path>
</symbol>
<symbol id="icon-service5" viewBox="0 0 32 32">
<path fill="#f0899c" style="fill: var(--color4, #f0899c)" d="M11.040 3.334c0.84 0.026 1.653 0.172 2.441 0.44h0.079c0.053 0.025 0.093 0.053 0.12 0.079 0.295 0.095 0.573 0.201 0.84 0.348l0.507 0.227c0.2 0.107 0.44 0.305 0.573 0.387 0.133 0.079 0.28 0.16 0.4 0.252 1.481-1.132 3.28-1.745 5.133-1.732 0.841 0 1.681 0.119 2.48 0.387 4.921 1.6 6.695 7 5.213 11.72-0.84 2.412-2.213 4.613-4.012 6.412-2.575 2.493-5.4 4.707-8.441 6.613l-0.333 0.201-0.347-0.215c-3.052-1.893-5.893-4.107-8.492-6.613-1.787-1.799-3.161-3.987-4.015-6.399-1.507-4.72 0.267-10.12 5.241-11.748 0.387-0.133 0.785-0.227 1.185-0.279h0.16c0.375-0.055 0.747-0.080 1.12-0.080h0.147zM22.92 7.548c-0.547-0.188-1.147 0.107-1.347 0.667-0.187 0.56 0.107 1.173 0.667 1.372 0.855 0.32 1.427 1.161 1.427 2.093v0.041c-0.025 0.305 0.067 0.6 0.253 0.827s0.467 0.359 0.76 0.387c0.547-0.015 1.013-0.453 1.053-1.015v-0.159c0.040-1.868-1.092-3.56-2.813-4.213z"></path>
</symbol>
<symbol id="icon-service4" viewBox="0 0 32 32">
<path fill="#f0899c" style="fill: var(--color4, #f0899c)" d="M29.080 17.087c0.096 0.054 0.115 0.168 0.119 0.212l0.001 0.017-0.107 6.886c0 2.747-2.128 4.987-4.808 5.124l-0.261 0.007h-16.061c-2.714 0-4.927-2.154-5.063-4.867l-0.007-0.264-0.093-6.886c0 0 0-0.162 0.12-0.23 0.107-0.068 0.24 0.013 0.253 0.027 2.695 1.809 5.936 3.011 9.338 3.511 0.48 0.067 0.96-0.243 1.094-0.729 0.275-1.038 1.125-1.744 2.164-1.828l0.21-0.008h0.040c1.134 0 2.081 0.729 2.375 1.836 0.133 0.486 0.614 0.797 1.094 0.729 3.402-0.5 6.643-1.701 9.338-3.511 0 0 0.027-0.014 0.053-0.027 0.053-0.027 0.133-0.041 0.2 0zM15.993 19.99c-0.501 0-0.924 0.386-0.991 0.876l-0.009 0.136v1.742c0 0.567 0.454 1.013 1.001 1.013 0.514 0 0.926-0.374 0.992-0.874l0.009-0.139v-1.742c0-0.554-0.44-1.013-1-1.013zM17.714 2.667c2.001 0 3.642 1.526 3.895 3.484h2.641c2.801 0 5.083 2.309 5.083 5.144 0 0-0.080 1.2-0.107 2.872-0.003 0.132-0.067 0.262-0.172 0.34-0.642 0.474-1.229 0.865-1.282 0.892-2.214 1.485-4.788 2.53-7.529 3.050-0.179 0.035-0.355-0.058-0.446-0.217-0.768-1.331-2.204-2.198-3.805-2.198-1.59 0-3.039 0.857-3.83 2.19-0.092 0.157-0.265 0.247-0.443 0.213-2.719-0.521-5.292-1.565-7.493-3.024l-1.281-0.891c-0.107-0.068-0.173-0.189-0.173-0.324-0.040-0.689-0.107-2.903-0.107-2.903 0-2.835 2.281-5.144 5.083-5.144h2.628c0.253-1.958 1.894-3.484 3.895-3.484h3.442zM17.714 4.692h-3.442c-0.894 0-1.654 0.621-1.868 1.458h7.177c-0.213-0.837-0.974-1.458-1.868-1.458z"></path>
</symbol>
<symbol id="icon-service3" viewBox="0 0 32 32">
<path fill="#f0899c" style="fill: var(--color4, #f0899c)" d="M12.373 21.099l6.473 0.020c0.404 0.001 0.73 0.339 0.73 0.754v3.641c0 0.416-0.236 0.792-0.604 0.966l-5.876 2.759c-0.137 0.064-0.283 0.095-0.428 0.095-0.194 0-0.387-0.057-0.556-0.168-0.295-0.195-0.474-0.532-0.474-0.892v-6.42c0-0.417 0.329-0.755 0.734-0.754zM26.496 2.667c1.568 0 2.838 1.308 2.838 2.923v2.042c0 0.783-0.306 1.536-0.85 2.084l-8.673 8.773c-0.15 0.153-0.353 0.238-0.563 0.236l-7.262-0.023c-0.221 0-0.431-0.095-0.582-0.26l-7.971-8.766c-0.493-0.542-0.766-1.257-0.766-2v-2.086c0-1.615 1.27-2.924 2.838-2.924h20.992z"></path>
</symbol>
<symbol id="icon-service2" viewBox="0 0 32 32">
<path fill="#f0899c" style="fill: var(--color4, #f0899c)" d="M11.941 6.613c0.654-0.122 1.309 0.204 1.594 0.794 0.071 0.107 0.128 0.222 0.169 0.344 0.181 2.796 0.374 5.544 0.555 8.293-0.004 0.286 0.041 0.57 0.133 0.841 0.217 0.533 0.756 0.872 1.34 0.841l8.875-0.569 0.060 0.024 0.162 0.012c0.321 0.041 0.62 0.187 0.847 0.418 0.265 0.269 0.41 0.63 0.404 1.004-0.35 5.096-4.086 9.354-9.171 10.451s-10.297-1.23-12.793-5.712c-0.734-1.291-1.198-2.713-1.364-4.182-0.065-0.435-0.093-0.875-0.085-1.315 0.017-5.419 3.875-10.096 9.273-11.242zM17.218 2.668c6.094 0.182 11.188 4.607 12.111 10.52 0.006 0.035 0.006 0.071 0 0.107l-0.002 0.167c-0.020 0.221-0.111 0.431-0.261 0.6-0.188 0.211-0.454 0.34-0.739 0.358l-10.408 0.679c-0.279-0.014-0.547-0.122-0.756-0.31-0.251-0.225-0.393-0.544-0.391-0.878l-0.688-10.058v-0.166c0.013-0.283 0.139-0.549 0.352-0.74s0.495-0.291 0.783-0.278z"></path>
</symbol>
<symbol id="icon-service1" viewBox="0 0 32 32">
<path fill="#f0899c" style="fill: var(--color4, #f0899c)" d="M22.226 2.667c4.535 0 7.095 2.572 7.108 7.107v12.453c0 4.533-2.573 7.107-7.108 7.107h-12.452c-4.535 0-7.107-2.573-7.107-7.107v-12.453c0-4.535 2.572-7.107 7.107-7.107h12.452zM16.667 8.174c-0.375-0.227-0.828-0.227-1.187 0-0.361 0.225-0.56 0.64-0.521 1.053v13.587c0.068 0.573 0.547 1 1.107 1 0.575 0 1.053-0.427 1.107-1v-13.587c0.053-0.413-0.145-0.828-0.505-1.053zM10.441 12.547c-0.36-0.227-0.815-0.227-1.173 0-0.361 0.227-0.56 0.639-0.52 1.053v9.213c0.052 0.573 0.532 1 1.105 1 0.575 0 1.053-0.427 1.107-1v-9.213c0.041-0.415-0.16-0.827-0.519-1.053zM22.786 17.387c-0.359-0.227-0.812-0.227-1.185 0-0.361 0.227-0.56 0.625-0.507 1.053v4.373c0.053 0.573 0.532 1 1.107 1 0.56 0 1.039-0.427 1.107-1v-4.373c0.039-0.428-0.16-0.827-0.521-1.053z"></path>
</symbol>
<symbol id="icon-Logo" viewBox="0 0 32 32">
<path fill="#00b5e2" style="fill: var(--color1, #00b5e2)" d="M14.068 2.78l17.356 17.203v9.236h-8.1v-5.916l-12.606-12.495h-2.619v18.411h-8.1v-26.439h14.068zM23.324 11.956v-9.175h8.1v9.175h-8.1z"></path>
<path fill="#f0899c" style="fill: var(--color4, #f0899c)" d="M23.322 2.78h8.102v9.185h-8.102v-9.185z"></path>
</symbol>
</defs>
</svg>
